<?xml version="1.0" encoding="utf-8"?>
<!-- Generator: Adobe Illustrator 16.0.0, SVG Export Plug-In . SVG Version: 6.00 Build 0)  -->
<!DOCTYPE svg PUBLIC "-//W3C//DTD SVG 1.1//EN" "http://www.w3.org/Graphics/SVG/1.1/DTD/svg11.dtd">
<svg version="1.1" id="Layer_1" xmlns="http://www.w3.org/2000/svg" xmlns:xlink="http://www.w3.org/1999/xlink" x="0px" y="0px"
	 width="9px" height="9px" viewBox="0 0 9 9" enable-background="new 0 0 9 9" xml:space="preserve">
<g>
	<path fill="#DAD9D9" d="M-17,24.984h1v1h-1V24.984z M-16,23.984h1v1h-1V23.984z M-15,22.984h1v1h-1V22.984z M-14,21.984h1v1h-1
		V21.984z M-13,20.984h1v1h-1V20.984z M-12,19.984h1v1h-1V19.984z M-11,18.984h1v1h-1V18.984z M-10,17.984h1v1h-1V17.984z
		 M-9,16.984h1v1h-1V16.984z M-8,15.984h1v1h-1V15.984z M-7,14.984h1v1h-1V14.984z M-6,13.984h1v1h-1V13.984z M0,7.984h1v1H0V7.984z
		 M1,6.984h1v1H1V6.984z M2,5.984h1v1H2V5.984z M3,4.984h1v1H3V4.984z M4,3.984h1v1H4V3.984z M5,2.984h1v1H5V2.984z M6,1.984h1v1H6
		V1.984z M7,0.984h1v1H7V0.984z M8-0.016h1v1H8V-0.016z M9-1.016h1v1H9V-1.016z M10-2.016h1v1h-1V-2.016z M11-3.016h1v1h-1V-3.016z
		 M12-4.016h1v1h-1V-4.016z M13-5.016h1v1h-1V-5.016z M14-6.016h1v1h-1V-6.016z M15-7.016h1v1h-1V-7.016z M16-8.016h1v1h-1V-8.016z
		 M17-9.016h1v1h-1V-9.016z M18-10.016h1v1h-1V-10.016z"/>
</g>
</svg>
